<?xml version="1.0" encoding="UTF-8"?>
<svg viewBox="0 0 744.09448819 1052.3622047" xmlns="http://www.w3.org/2000/svg" xmlns:xlink="http://www.w3.org/1999/xlink">
 <defs>
  <linearGradient id="a">
   <stop stop-color="#feffff" offset="0"/>
   <stop stop-color="#feffff" stop-opacity="0" offset="1"/>
  </linearGradient>
  <linearGradient id="f" x1="98.549" x2="207.34" y1="527.5" y2="434.25" gradientUnits="userSpaceOnUse">
   <stop stop-color="#c2c3c3" offset="0"/>
   <stop stop-color="#c2c3c3" stop-opacity="0" offset="1"/>
  </linearGradient>
  <linearGradient id="e" x1="-84.608" x2="2.0075" y1="574.72" y2="476.01" gradientUnits="userSpaceOnUse">
   <stop stop-color="#eeeded" offset="0"/>
   <stop stop-color="#eeeded" stop-opacity="0" offset="1"/>
  </linearGradient>
  <linearGradient id="d" x1="238.23" x2="234.65" y1="192.72" y2="182" gradientUnits="userSpaceOnUse" xlink:href="#a"/>
  <radialGradient id="c" cx="120.48" cy="443.39" r="86.18" gradientTransform="matrix(1.5255 -.69386 .037853 .083223 -3.5388 137.92)" gradientUnits="userSpaceOnUse">
   <stop stop-color="#fbfcfc" offset="0"/>
   <stop stop-color="#fbfcfc" stop-opacity="0" offset="1"/>
  </radialGradient>
  <radialGradient id="b" cx="117.84" cy="595.98" r="130.65" gradientTransform="matrix(1 0 0 .80602 76.555 -251.36)" gradientUnits="userSpaceOnUse" xlink:href="#a"/>
 </defs>
 <path d="m283.96 43.262-28.429 1.1604-190.3 80.065 11.023 109.07 131.7 101.53 175.21-86.447 5.8018-10.443-4.6414-46.414-49.896-43.514-50.476-105.01z" fill="#cdcdcd" fill-rule="evenodd"/>
 <path d="m203.74 330.78c-15.867-9.2641-29.794-22.518-44.917-32.883-12.34-10.549-28.743-21.214-40.934-32.08-11.466-9.4428-31.196-15.58-37.805-29.319-7.176-14.044-9.7301-21.9-9.4447-38.133-1.3752-23.264-5.5531-46.512-4.8526-69.815 8.6795-6.5482 26.814-10.353 37.249-5.286 13.348-4.1702 26.601-12.123 40.268-17.17 31.661-13.772 63.341-27.497 95.017-41.208 14.936-6.173 29.35-13.718 44.653-18.954 13.031 13.349 31.981 69.816 23.826 53.813-7.0862-13.607-10.405-28.243-20.278-39.934-13.607 3.458-22.608 9.3206-35.915 14.121-45.004 19.536-90.194 38.611-134.88 58.865-3.5731 10.873 10.579 27.404 14.107 40.308 8.5678 19.439 16.941 38.86 26.007 58.071 11.331 16.103 13.536 20.228 18.235 28.597 10.912 9.0574 10.912 20.811 36.072 15.119 52.554-25.165 104.81-50.986 157.15-76.567 8.2722-3.734 16.371-14.764 16.965 1.1348 2.4031 10.958 5.0889 21.853 5.9056 33.105-5.9974 10.161-9.4526 18.716-23.008 22.31-34.146 16.212-68.943 33.056-102.12 51.192-18.797 7.9012-38.089 20.343-57.549 26.618-5.0022-4.6826 0.00485 0.31971-3.7556-1.9049zm-85.897-205.91c-5.333-3.2573-7.2854 4.0278 0 1e-5v-1e-5zm17.433-7.0541c-0.0458-3.7608-12.356 5.6518-1.5404 0.83936l1.5404-0.83934v-2e-5zm40.567-17.946c-3.046-2.9937-4.8166 3.8242 0 1e-5v-1e-5zm25-11c-3.046-2.9937-4.8166 3.8242 0 1e-5v-1e-5zm60.427-25.521c3.6929-6.0074-12.105 5.6249-1e-5 -1e-5l1e-5 1e-5zm-86.683 114.16c-8.1139-13.879-12.119-30.216-19.327-44.833-6.312-9.0235 1.279-12.705 8.3922-15.395 28.906-12.943 58.079-25.341 87.07-38.061 15.909-5.9884 15.893 21.023 23.463 30.104 1.8992 5.7438 15.096 25.897-0.15743 16.986-15.244 1.5292-28.413 12.592-42.812 17.968-17.098 6.8658-34.042 14.744-50.082 23.822-9.8139 18.561 75.779-25.832 100.82-36.504-4.0175 9.958-23.989 12.272-34.033 19.045-21.465 9.8552-43.074 19.259-64.842 28.39-2.7936 1.0163-6.3606 0.79788-8.4896-1.5222zm-33.567-12.928-0.64977-0.96116s16.753-0.19722 0.64977 0.96116zm138.07-70.782-0.95244-0.16747-0.29486-0.72669s13.655-2.1731 1.2473 0.89416z" fill="#3e5c6b" opacity=".28889"/>
 <path d="m284.09 62.651-167.08 72.989 41.331 91.456s25.502 43.969 33.417 44.849 14.07 0 22.864-3.5176 162.69-78.266 162.69-78.266l-48.366-41.331-44.849-86.18z" fill="#f0f1f1" fill-rule="evenodd" stroke="#000"/>
 <path d="m284.09 62.651-167.08 72.989 41.331 91.456s25.502 43.969 33.417 44.849 14.07 0 22.864-3.5176 162.69-78.266 162.69-78.266l-48.366-41.331-44.849-86.18z" fill="url(#b)" fill-rule="evenodd" stroke="#000"/>
 <path d="m284.09 62.651-167.08 72.989 41.331 91.456s25.502 43.969 33.417 44.849 14.07 0 22.864-3.5176 162.69-78.266 162.69-78.266l-48.366-41.331-44.849-86.18z" fill="url(#d)" fill-rule="evenodd" stroke="#000"/>
 <g transform="matrix(.99983 -.0025042 .069598 1 42.882 -345.79)">
  <path d="m178.09 435.12c-11.565 2.2482-21.05 9.6478-32.022 13.521-18.733 8.9926-38.186 16.766-56.478 26.51-9.076 8.1037-5.3152 22.116-0.125 31.344 4.1035 10.246 7.8933 24.207 20.438 26.719 10.716 0.42238 18.955-7.692 28.688-10.781 21.022-10.223 43.193-18.527 63.406-30.094 8.5558-9.4371 3.0418-23.212-1.875-33-3.8697-10.099-8.9343-24.359-22.031-24.219z" fill="#5e6569" stroke="#484a47" stroke-linecap="round" stroke-linejoin="round" stroke-width="1.7533"/>
  <path d="m178.09 435.12c-11.565 2.2482-21.05 9.6478-32.022 13.521-18.733 8.9926-38.186 16.766-56.478 26.51-9.076 8.1037-5.3152 22.116-0.125 31.344 4.1035 10.246 7.8933 24.207 20.438 26.719 10.716 0.42238 18.955-7.692 28.688-10.781 21.022-10.223 43.193-18.527 63.406-30.094 8.5558-9.4371 3.0418-23.212-1.875-33-3.8697-10.099-8.9343-24.359-22.031-24.219z" fill="url(#f)" stroke="#484a47" stroke-linecap="round" stroke-linejoin="round" stroke-width="1.7533"/>
  <path transform="matrix(.90874,-.41735,.38657,.92226,0,0)" d="m-97.503 472.95h88.559a11.933 16.332 0 0 1 11.933 16.332v23.317a11.933 16.332 0 0 1 -11.933 16.332h-88.559a11.933 16.332 0 0 1 -11.933 -16.332v-23.317a11.933 16.332 0 0 1 11.933 -16.332" fill="#9c9c9c" stroke="#484a47" stroke-linecap="round" stroke-linejoin="round" stroke-width="1.7538"/>
  <path transform="matrix(.90874,-.41735,.38657,.92226,0,0)" d="m-97.503 472.95h88.559a11.933 16.332 0 0 1 11.933 16.332v23.317a11.933 16.332 0 0 1 -11.933 16.332h-88.559a11.933 16.332 0 0 1 -11.933 -16.332v-23.317a11.933 16.332 0 0 1 11.933 -16.332" fill="url(#e)" stroke="#484a47" stroke-linecap="round" stroke-linejoin="round" stroke-width="1.7538"/>
  <g transform="matrix(.91817 -.40856 .31386 .94947 -385.98 -271.59)" opacity=".7">
   <g transform="matrix(.11772 0 0 .092662 219.79 820.64)" fill-rule="evenodd" stroke="#000">
    <path d="m88.571 812.14 144.29-1.263-28.938 42.501-88.022-0.37795-27.326-40.86z" stroke-width=".94029"/>
    <path d="m82.22 812.21 32.066 47.993 1.4286 122.86-17.355 17.355-15.502-17.78-0.63728-170.42z"/>
    <path d="m237.46 812.21-32.066 47.993-1.4286 122.86 17.355 17.355 15.502-17.78 0.63728-170.42z"/>
    <g transform="matrix(1 0 0 -1 0 2003.3)">
     <path d="m88.571 812.14 144.29-1.263-28.938 42.501-88.022-0.37795-27.326-40.86z" stroke-width=".94029"/>
     <path d="m82.22 812.21 32.066 47.993 1.4286 122.86-17.355 17.355-15.502-17.78-0.63728-170.42z"/>
     <path d="m237.46 812.21-32.066 47.993-1.4286 122.86 17.355 17.355 15.502-17.78 0.63728-170.42z"/>
    </g>
   </g>
   <g transform="matrix(.11772 0 0 .092662 241.28 820.64)" fill-rule="evenodd" stroke="#000">
    <path d="m88.571 812.14 144.29-1.263-28.938 42.501-88.022-0.37795-27.326-40.86z" stroke-width=".94029"/>
    <path d="m82.22 812.21 32.066 47.993 1.4286 122.86-17.355 17.355-15.502-17.78-0.63728-170.42z"/>
    <path d="m237.46 812.21-32.066 47.993-1.4286 122.86 17.355 17.355 15.502-17.78 0.63728-170.42z"/>
    <g transform="matrix(1 0 0 -1 0 2003.3)">
     <path d="m88.571 812.14 144.29-1.263-28.938 42.501-88.022-0.37795-27.326-40.86z" stroke-width=".94029"/>
     <path d="m82.22 812.21 32.066 47.993 1.4286 122.86-17.355 17.355-15.502-17.78-0.63728-170.42z"/>
     <path d="m237.46 812.21-32.066 47.993-1.4286 122.86 17.355 17.355 15.502-17.78 0.63728-170.42z"/>
    </g>
   </g>
   <g transform="matrix(.09593 0 0 .07123 269.24 846.45)" fill-rule="evenodd" stroke="#000">
    <path d="m88.571 812.14 144.29-1.263-28.938 42.501-88.022-0.37795-27.326-40.86z" stroke-width=".94029"/>
    <path d="m82.22 812.21 32.066 47.993 1.4286 122.86-17.355 17.355-15.502-17.78-0.63728-170.42z"/>
    <path d="m237.46 812.21-32.066 47.993-1.4286 122.86 17.355 17.355 15.502-17.78 0.63728-170.42z"/>
    <g transform="matrix(1 0 0 -1 0 2003.3)">
     <path d="m88.571 812.14 144.29-1.263-28.938 42.501-88.022-0.37795-27.326-40.86z" stroke-width=".94029"/>
     <path d="m82.22 812.21 32.066 47.993 1.4286 122.86-17.355 17.355-15.502-17.78-0.63728-170.42z"/>
     <path d="m237.46 812.21-32.066 47.993-1.4286 122.86 17.355 17.355 15.502-17.78 0.63728-170.42z"/>
    </g>
   </g>
   <g transform="matrix(.09593 0 0 .07123 286.75 846.45)" fill-rule="evenodd" stroke="#000">
    <path d="m88.571 812.14 144.29-1.263-28.938 42.501-88.022-0.37795-27.326-40.86z" stroke-width=".94029"/>
    <path d="m82.22 812.21 32.066 47.993 1.4286 122.86-17.355 17.355-15.502-17.78-0.63728-170.42z"/>
    <path d="m237.46 812.21-32.066 47.993-1.4286 122.86 17.355 17.355 15.502-17.78 0.63728-170.42z"/>
    <g transform="matrix(1 0 0 -1 0 2003.3)">
     <path d="m88.571 812.14 144.29-1.263-28.938 42.501-88.022-0.37795-27.326-40.86z" stroke-width=".94029"/>
     <path d="m82.22 812.21 32.066 47.993 1.4286 122.86-17.355 17.355-15.502-17.78-0.63728-170.42z"/>
     <path d="m237.46 812.21-32.066 47.993-1.4286 122.86 17.355 17.355 15.502-17.78 0.63728-170.42z"/>
    </g>
   </g>
   <path d="m271.96 926.11h3.75v4.7321h-3.75z"/>
  </g>
 </g>
 <path d="m107.33 137.4c-3.5054-3.3791-7.9608-5.5347-12.199-7.8418-3.4786-2.2481-7.7316-2.2786-11.722-2.1192-3.0459 0.2339-6.1225 0.11992-9.1503 0.50079-2.9034 0.38402-4.4418 3.2317-4.8453 5.8647-0.40648 1.9308-2.1445 6.3276 1.6009 5.2768 4.5485-0.85876 8.7275-3.5455 13.449-3.414 3.7105 0.02404 6.5898 2.551 9.2822 4.7768 2.6106 1.768 5.5091 3.127 8.4439 4.2692 1.8419 0.36118 4.6725 1.5093 5.8517-0.50314 0.66447-2.2251-0.04882-4.6654-0.71074-6.8101z" fill="#fbfcfc" fill-rule="evenodd" opacity=".42222"/>
 <path d="m113.49 152.35 37.814 83.542 27.261 36.934s7.9145 5.2763 2.6382 7.0351-36.055-36.934-37.814-40.452-32.537-71.23-34.296-78.266 4.3969-10.553 4.3969-8.7939z" fill="#fbfcfc" fill-rule="evenodd" opacity=".76111"/>
 <path d="m110.85 125.09 168.84-74.748 3.5176 5.2763-170.6 76.507-1.7588-7.0351z" fill="url(#c)" fill-rule="evenodd"/>
 <path transform="matrix(.89189,-.45226,.7576,.65272,0,0)" d="m73.593 320.79h19.43a9.4399 15.63 0 0 1 9.4399 15.63v8.3657a9.4399 15.63 0 0 1 -9.4399 15.63h-19.43a9.4399 15.63 0 0 1 -9.4399 -15.63v-8.3657a9.4399 15.63 0 0 1 9.4399 -15.63" fill="#008b01"/>
 <path transform="matrix(.89189,-.45226,.7576,.65272,0,0)" d="m29.299 319.92h19.43a9.44 15.63 0 0 1 9.44 15.63v8.3657a9.44 15.63 0 0 1 -9.44 15.63h-19.43a9.44 15.63 0 0 1 -9.44 -15.63v-8.3657a9.44 15.63 0 0 1 9.44 -15.63" fill="#d20301"/>
 <path transform="matrix(.87455,-.48493,.72786,.68573,0,0)" d="m-31.795 319.84h2.0945a9.4129 11.043 0 0 1 9.4129 11.043 9.4129 11.043 0 0 1 -9.4129 11.043h-2.0945a9.4129 11.043 0 0 1 -9.4129 -11.043 9.4129 11.043 0 0 1 9.4129 -11.043" fill="#d57401"/>
</svg>
