<?xml version="1.0" encoding="UTF-8" standalone="no"?>
<svg
   viewBox="0 0 512 512.00001"
   version="1.1"
   id="svg48"
   width="512"
   height="512"
   xmlns:xlink="http://www.w3.org/1999/xlink"
   xmlns="http://www.w3.org/2000/svg"
   xmlns:svg="http://www.w3.org/2000/svg">
  <defs
     id="defs8">
    <linearGradient
       id="a">
      <stop
         stop-color="#feffff"
         offset="0"
         id="stop1" />
      <stop
         stop-color="#feffff"
         stop-opacity="0"
         offset="1"
         id="stop2" />
    </linearGradient>
    <linearGradient
       id="f"
       x1="98.549004"
       x2="207.34"
       y1="527.5"
       y2="434.25"
       gradientUnits="userSpaceOnUse">
      <stop
         stop-color="#c2c3c3"
         offset="0"
         id="stop3" />
      <stop
         stop-color="#c2c3c3"
         stop-opacity="0"
         offset="1"
         id="stop4" />
    </linearGradient>
    <linearGradient
       id="e"
       x1="-84.608002"
       x2="2.0074999"
       y1="574.71997"
       y2="476.01001"
       gradientUnits="userSpaceOnUse">
      <stop
         stop-color="#eeeded"
         offset="0"
         id="stop5" />
      <stop
         stop-color="#eeeded"
         stop-opacity="0"
         offset="1"
         id="stop6" />
    </linearGradient>
    <linearGradient
       id="d"
       x1="238.23"
       x2="234.64999"
       y1="192.72"
       y2="182"
       gradientUnits="userSpaceOnUse"
       xlink:href="#a"
       gradientTransform="matrix(1.5756886,0,0,1.5756886,-102.78374,-42.078343)" />
    <radialGradient
       id="c"
       cx="120.48"
       cy="443.39001"
       r="86.18"
       gradientTransform="matrix(2.403713,-1.0933073,0.05964454,0.13113353,-108.35979,175.24063)"
       gradientUnits="userSpaceOnUse">
      <stop
         stop-color="#fbfcfc"
         offset="0"
         id="stop7" />
      <stop
         stop-color="#fbfcfc"
         stop-opacity="0"
         offset="1"
         id="stop8" />
    </radialGradient>
    <radialGradient
       id="b"
       cx="117.84"
       cy="595.97998"
       r="130.64999"
       gradientTransform="matrix(1.5756886,0,0,1.2700365,17.843101,-438.14343)"
       gradientUnits="userSpaceOnUse"
       xlink:href="#a" />
  </defs>
  <path
     d="M 344.64879,26.089097 299.85354,27.917526 0,154.07503 17.368815,325.93539 224.887,485.91506 500.9634,349.7015 510.10523,333.24659 502.79183,260.11258 424.17127,191.54806 344.63682,26.085 Z"
     fill="#cdcdcd"
     fill-rule="evenodd"
     id="path8"
     style="stroke-width:1.57569" />
  <path
     d="M 218.24705,479.12794 C 193.2456,464.5306 171.30099,443.64658 147.47185,427.31457 128.02785,410.69263 102.18183,393.88791 82.97261,376.76648 64.905765,361.88756 33.817429,352.21725 23.403703,330.56886 12.096561,308.43989 8.072095,296.06128 8.521797,270.48313 6.35491,233.82631 -0.22816,197.1947 0.87561,160.47643 c 13.676189,-10.31793 42.250514,-16.31311 58.692825,-8.32909 21.032291,-6.57094 41.914895,-19.10208 63.449825,-27.05458 49.88788,-21.70038 99.8057,-43.326706 149.71721,-64.930973 23.53448,-9.726725 46.24646,-21.615296 70.35922,-29.865601 20.5328,21.033867 50.3921,110.008274 37.54236,84.792534 C 369.4714,93.648322 364.24201,70.586543 348.68523,52.165168 327.24484,57.613899 313.06207,66.851531 292.09438,74.415466 221.18209,105.19812 149.97672,135.25438 79.565499,167.16838 c -5.630093,17.13246 16.66921,43.18017 22.228241,63.51286 13.50018,30.62981 26.69374,61.23125 40.97893,91.50181 17.85413,25.37331 21.32852,31.87303 28.73268,45.05997 17.19392,14.27164 17.19392,32.79165 56.83824,23.82283 82.80874,-39.6522 165.14792,-80.33806 247.61947,-120.64575 13.03441,-5.88362 25.79559,-23.26346 26.73155,1.78809 3.78654,17.2664 8.01853,34.43353 9.30539,52.16317 -9.45003,16.01058 -14.89435,29.49059 -36.25344,35.15362 -53.80347,25.54506 -108.6327,52.08596 -160.90932,80.66265 -29.61822,12.44983 -60.01641,32.05423 -90.67931,41.94168 -7.88191,-7.37832 0.008,0.50376 -5.91765,-3.00153 z M 82.900129,154.67789 c -8.403148,-5.13249 -11.479522,6.34656 0,2e-5 z m 27.468981,-11.11506 c -0.0722,-5.92585 -19.46921,8.90547 -2.42719,1.32257 l 2.42719,-1.32254 z m 63.92096,-28.27731 c -4.79955,-4.71714 -7.58946,6.02575 0,2e-5 z m 39.39221,-17.332575 c -4.79954,-4.717139 -7.58946,6.025745 0,1.6e-5 z m 95.21414,-40.213149 c 5.81886,-9.465791 -19.07371,8.863091 -2e-5,-1.5e-5 z M 172.311,237.62041 c -12.78498,-21.86898 -19.09577,-47.61101 -30.45333,-70.64285 -9.94575,-14.21823 2.0153,-20.01912 13.22349,-24.25773 45.54686,-20.39413 91.51442,-39.92952 137.19521,-59.97228 25.06763,-9.435853 25.04242,33.1257 36.97038,47.43453 2.99255,9.05044 23.7866,40.80561 -0.24806,26.76465 -24.0198,2.40954 -44.77004,19.84107 -67.45838,28.31197 -26.94112,10.81837 -53.63959,23.23196 -78.91364,37.53606 -15.46365,29.24635 119.40411,-40.70319 158.86093,-57.51894 -6.33033,15.69071 -37.7992,19.33685 -53.62541,30.00899 -33.82216,15.52873 -67.87121,30.34619 -102.1708,44.7338 -4.40185,1.60137 -10.02233,1.25721 -13.37697,-2.39851 z m -52.89114,-20.3705 -1.02383,-1.51449 c 0,0 26.39751,-0.31076 1.02383,1.51449 z m 217.55533,-111.5304 -1.50075,-0.26388 -0.46461,-1.14503 c 0,0 21.51603,-3.42413 1.96536,1.40891 z"
     fill="#3e5c6b"
     opacity="0.28889"
     id="path9"
     style="stroke-width:1.57569" />
  <path
     d="M 344.85363,56.640123 81.58758,171.64806 146.71237,315.75424 c 0,0 40.18321,69.28145 52.65478,70.66806 12.47158,1.3866 22.16994,0 36.02655,-5.54265 13.8566,-5.54264 256.34877,-123.32284 256.34877,-123.32284 L 415.53272,192.43202 344.86466,56.639178 Z"
     fill="#f0f1f1"
     fill-rule="evenodd"
     stroke="#000000"
     id="path10"
     style="stroke-width:1.57569" />
  <path
     d="M 344.85363,56.640123 81.58758,171.64806 146.71237,315.75424 c 0,0 40.18321,69.28145 52.65478,70.66806 12.47158,1.3866 22.16994,0 36.02655,-5.54265 13.8566,-5.54264 256.34877,-123.32284 256.34877,-123.32284 L 415.53272,192.43202 344.86466,56.639178 Z"
     fill="url(#b)"
     fill-rule="evenodd"
     stroke="#000000"
     id="path11"
     style="fill:url(#b);stroke-width:1.57569" />
  <path
     d="M 344.85363,56.640123 81.58758,171.64806 146.71237,315.75424 c 0,0 40.18321,69.28145 52.65478,70.66806 12.47158,1.3866 22.16994,0 36.02655,-5.54265 13.8566,-5.54264 256.34877,-123.32284 256.34877,-123.32284 L 415.53272,192.43202 344.86466,56.639178 Z"
     fill="url(#d)"
     fill-rule="evenodd"
     stroke="#000000"
     id="path12"
     style="fill:url(#d);stroke-width:1.57569" />
  <g
     transform="matrix(1.5754207,-0.00394584,0.10966478,1.5756886,-35.215065,-586.9357)"
     id="g43">
    <path
       d="m 178.09,435.12 c -11.565,2.2482 -21.05,9.6478 -32.022,13.521 -18.733,8.9926 -38.186,16.766 -56.478,26.51 -9.076,8.1037 -5.3152,22.116 -0.125,31.344 4.1035,10.246 7.8933,24.207 20.438,26.719 10.716,0.42238 18.955,-7.692 28.688,-10.781 21.022,-10.223 43.193,-18.527 63.406,-30.094 8.5558,-9.4371 3.0418,-23.212 -1.875,-33 -3.8697,-10.099 -8.9343,-24.359 -22.031,-24.219 z"
       fill="#5e6569"
       stroke="#484a47"
       stroke-linecap="round"
       stroke-linejoin="round"
       stroke-width="1.7533"
       id="path13" />
    <path
       d="m 178.09,435.12 c -11.565,2.2482 -21.05,9.6478 -32.022,13.521 -18.733,8.9926 -38.186,16.766 -56.478,26.51 -9.076,8.1037 -5.3152,22.116 -0.125,31.344 4.1035,10.246 7.8933,24.207 20.438,26.719 10.716,0.42238 18.955,-7.692 28.688,-10.781 21.022,-10.223 43.193,-18.527 63.406,-30.094 8.5558,-9.4371 3.0418,-23.212 -1.875,-33 -3.8697,-10.099 -8.9343,-24.359 -22.031,-24.219 z"
       fill="url(#f)"
       stroke="#484a47"
       stroke-linecap="round"
       stroke-linejoin="round"
       stroke-width="1.7533"
       id="path14"
       style="fill:url(#f)" />
    <path
       transform="matrix(0.90874,-0.41735,0.38657,0.92226,0,0)"
       d="m -97.503,472.95 h 88.559 a 11.933,16.332 0 0 1 11.933,16.332 v 23.317 a 11.933,16.332 0 0 1 -11.933,16.332 h -88.559 a 11.933,16.332 0 0 1 -11.933,-16.332 v -23.317 a 11.933,16.332 0 0 1 11.933,-16.332"
       fill="#9c9c9c"
       stroke="#484a47"
       stroke-linecap="round"
       stroke-linejoin="round"
       stroke-width="1.7538"
       id="path15" />
    <path
       transform="matrix(0.90874,-0.41735,0.38657,0.92226,0,0)"
       d="m -97.503,472.95 h 88.559 a 11.933,16.332 0 0 1 11.933,16.332 v 23.317 a 11.933,16.332 0 0 1 -11.933,16.332 h -88.559 a 11.933,16.332 0 0 1 -11.933,-16.332 v -23.317 a 11.933,16.332 0 0 1 11.933,-16.332"
       fill="url(#e)"
       stroke="#484a47"
       stroke-linecap="round"
       stroke-linejoin="round"
       stroke-width="1.7538"
       id="path16"
       style="fill:url(#e)" />
    <g
       transform="matrix(0.91817,-0.40856,0.31386,0.94947,-385.98,-271.59)"
       opacity="0.7"
       id="g42">
      <g
         transform="matrix(0.11772,0,0,0.092662,219.79,820.64)"
         fill-rule="evenodd"
         stroke="#000000"
         id="g23">
        <path
           d="m 88.571,812.14 144.29,-1.263 -28.938,42.501 -88.022,-0.37795 -27.326,-40.86 z"
           stroke-width="0.94029"
           id="path17" />
        <path
           d="m 82.22,812.21 32.066,47.993 1.4286,122.86 -17.355,17.355 -15.502,-17.78 -0.63728,-170.42 z"
           id="path18" />
        <path
           d="m 237.46,812.21 -32.066,47.993 -1.4286,122.86 17.355,17.355 15.502,-17.78 0.63728,-170.42 z"
           id="path19" />
        <g
           transform="matrix(1,0,0,-1,0,2003.3)"
           id="g22">
          <path
             d="m 88.571,812.14 144.29,-1.263 -28.938,42.501 -88.022,-0.37795 -27.326,-40.86 z"
             stroke-width="0.94029"
             id="path20" />
          <path
             d="m 82.22,812.21 32.066,47.993 1.4286,122.86 -17.355,17.355 -15.502,-17.78 -0.63728,-170.42 z"
             id="path21" />
          <path
             d="m 237.46,812.21 -32.066,47.993 -1.4286,122.86 17.355,17.355 15.502,-17.78 0.63728,-170.42 z"
             id="path22" />
        </g>
      </g>
      <g
         transform="matrix(0.11772,0,0,0.092662,241.28,820.64)"
         fill-rule="evenodd"
         stroke="#000000"
         id="g29">
        <path
           d="m 88.571,812.14 144.29,-1.263 -28.938,42.501 -88.022,-0.37795 -27.326,-40.86 z"
           stroke-width="0.94029"
           id="path23" />
        <path
           d="m 82.22,812.21 32.066,47.993 1.4286,122.86 -17.355,17.355 -15.502,-17.78 -0.63728,-170.42 z"
           id="path24" />
        <path
           d="m 237.46,812.21 -32.066,47.993 -1.4286,122.86 17.355,17.355 15.502,-17.78 0.63728,-170.42 z"
           id="path25" />
        <g
           transform="matrix(1,0,0,-1,0,2003.3)"
           id="g28">
          <path
             d="m 88.571,812.14 144.29,-1.263 -28.938,42.501 -88.022,-0.37795 -27.326,-40.86 z"
             stroke-width="0.94029"
             id="path26" />
          <path
             d="m 82.22,812.21 32.066,47.993 1.4286,122.86 -17.355,17.355 -15.502,-17.78 -0.63728,-170.42 z"
             id="path27" />
          <path
             d="m 237.46,812.21 -32.066,47.993 -1.4286,122.86 17.355,17.355 15.502,-17.78 0.63728,-170.42 z"
             id="path28" />
        </g>
      </g>
      <g
         transform="matrix(0.09593,0,0,0.07123,269.24,846.45)"
         fill-rule="evenodd"
         stroke="#000000"
         id="g35">
        <path
           d="m 88.571,812.14 144.29,-1.263 -28.938,42.501 -88.022,-0.37795 -27.326,-40.86 z"
           stroke-width="0.94029"
           id="path29" />
        <path
           d="m 82.22,812.21 32.066,47.993 1.4286,122.86 -17.355,17.355 -15.502,-17.78 -0.63728,-170.42 z"
           id="path30" />
        <path
           d="m 237.46,812.21 -32.066,47.993 -1.4286,122.86 17.355,17.355 15.502,-17.78 0.63728,-170.42 z"
           id="path31" />
        <g
           transform="matrix(1,0,0,-1,0,2003.3)"
           id="g34">
          <path
             d="m 88.571,812.14 144.29,-1.263 -28.938,42.501 -88.022,-0.37795 -27.326,-40.86 z"
             stroke-width="0.94029"
             id="path32" />
          <path
             d="m 82.22,812.21 32.066,47.993 1.4286,122.86 -17.355,17.355 -15.502,-17.78 -0.63728,-170.42 z"
             id="path33" />
          <path
             d="m 237.46,812.21 -32.066,47.993 -1.4286,122.86 17.355,17.355 15.502,-17.78 0.63728,-170.42 z"
             id="path34" />
        </g>
      </g>
      <g
         transform="matrix(0.09593,0,0,0.07123,286.75,846.45)"
         fill-rule="evenodd"
         stroke="#000000"
         id="g41">
        <path
           d="m 88.571,812.14 144.29,-1.263 -28.938,42.501 -88.022,-0.37795 -27.326,-40.86 z"
           stroke-width="0.94029"
           id="path35" />
        <path
           d="m 82.22,812.21 32.066,47.993 1.4286,122.86 -17.355,17.355 -15.502,-17.78 -0.63728,-170.42 z"
           id="path36" />
        <path
           d="m 237.46,812.21 -32.066,47.993 -1.4286,122.86 17.355,17.355 15.502,-17.78 0.63728,-170.42 z"
           id="path37" />
        <g
           transform="matrix(1,0,0,-1,0,2003.3)"
           id="g40">
          <path
             d="m 88.571,812.14 144.29,-1.263 -28.938,42.501 -88.022,-0.37795 -27.326,-40.86 z"
             stroke-width="0.94029"
             id="path38" />
          <path
             d="m 82.22,812.21 32.066,47.993 1.4286,122.86 -17.355,17.355 -15.502,-17.78 -0.63728,-170.42 z"
             id="path39" />
          <path
             d="m 237.46,812.21 -32.066,47.993 -1.4286,122.86 17.355,17.355 15.502,-17.78 0.63728,-170.42 z"
             id="path40" />
        </g>
      </g>
      <path
         d="m 271.96,926.11 h 3.75 v 4.7321 h -3.75 z"
         id="path41" />
    </g>
  </g>
  <path
     d="m 66.334914,174.42127 c -5.523418,-5.32441 -12.543741,-8.72096 -19.221825,-12.35623 -5.48119,-3.54231 -12.182594,-3.59037 -18.470222,-3.3392 -4.799389,0.36855 -9.647153,0.18895 -14.418023,0.78909 -4.574854,0.60509 -6.998894,5.09215 -7.634684,9.24094 -0.640486,3.04234 -3.379064,9.97033 2.52252,8.31459 7.167019,-1.35314 13.751822,-5.5866 21.191436,-5.3794 5.846593,0.0379 10.383473,4.01958 14.625857,7.52675 4.113492,2.78582 8.680626,4.92718 13.304957,6.72693 2.90226,0.56911 7.362405,2.37819 9.220457,-0.79279 1.046997,-3.50607 -0.07693,-7.35122 -1.119905,-10.7306 z"
     fill="#fbfcfc"
     fill-rule="evenodd"
     opacity="0.42222"
     id="path43"
     style="stroke-width:1.57569" />
  <path
     d="m 76.041156,197.97782 59.583094,131.63618 42.95484,58.19648 c 0,0 12.47079,8.3138 4.15698,11.08513 -8.3138,2.77132 -56.81145,-58.19649 -59.58308,-63.73976 -2.77164,-5.54327 -51.268185,-112.2363 -54.039821,-123.32284 -2.771637,-11.08655 6.928145,-16.62825 6.928145,-13.85645 z"
     fill="#fbfcfc"
     fill-rule="evenodd"
     opacity="0.76111"
     id="path44"
     style="stroke-width:1.57569" />
  <path
     d="M 71.881338,155.02454 337.9206,37.244972 343.46324,45.558778 74.650769,166.10999 71.879448,155.02486 Z"
     fill="url(#c)"
     fill-rule="evenodd"
     id="path45"
     style="fill:url(#c);stroke-width:1.57569" />
  <path
     d="m 383.57991,235.40496 27.30577,-13.84623 a 25.527963,13.27066 31.19127 0 1 31.92446,9.34813 l 9.98648,8.60398 a 25.527963,13.27066 31.19127 0 1 5.39191,22.80227 l -27.30577,13.84623 a 25.527963,13.27066 31.19127 0 1 -31.92446,-9.34813 l -9.98649,-8.60398 a 25.527963,13.27066 31.19127 0 1 -5.3919,-22.80227"
     fill="#008b01"
     id="path46"
     style="stroke-width:1.51527" />
  <path
     d="m 320.29318,266.07501 27.30577,-13.84623 a 25.527989,13.270788 31.191016 0 1 31.9246,9.34806 l 9.98649,8.60398 a 25.527989,13.270788 31.191016 0 1 5.39176,22.80234 l -27.30577,13.84623 a 25.527989,13.270788 31.191016 0 1 -31.9246,-9.34806 l -9.98649,-8.60398 a 25.527989,13.270788 31.191016 0 1 -5.39176,-22.80234"
     fill="#d20301"
     id="path47"
     style="stroke-width:1.51527" />
  <path
     d="m 220.22048,327.80232 2.88626,-1.6004 a 18.710653,13.140236 20.339724 0 1 25.63616,4.73954 18.710653,13.140236 20.339724 0 1 -0.30615,19.12431 l -2.88626,1.60041 a 18.710653,13.140236 20.339724 0 1 -25.63615,-4.73955 18.710653,13.140236 20.339724 0 1 0.30614,-19.12431"
     fill="#d57401"
     id="path48"
     style="stroke-width:1.53795" />
</svg>
