<?xml version="1.0" encoding="UTF-8" standalone="no"?>
<!-- Created with Inkscape (http://www.inkscape.org/) -->

<svg
   width="512.0px"
   height="512.0px"
   viewBox="0 0 512.0 512.0"
   version="1.1"
   id="SVGRoot"
   sodipodi:docname="last.svg"
   inkscape:version="1.2.2 (b0a8486541, 2022-12-01)"
   xmlns:inkscape="http://www.inkscape.org/namespaces/inkscape"
   xmlns:sodipodi="http://sodipodi.sourceforge.net/DTD/sodipodi-0.dtd"
   xmlns:xlink="http://www.w3.org/1999/xlink"
   xmlns="http://www.w3.org/2000/svg"
   xmlns:svg="http://www.w3.org/2000/svg">
  <sodipodi:namedview
     id="namedview663"
     pagecolor="#505050"
     bordercolor="#ffffff"
     borderopacity="1"
     inkscape:showpageshadow="0"
     inkscape:pageopacity="0"
     inkscape:pagecheckerboard="1"
     inkscape:deskcolor="#505050"
     inkscape:document-units="px"
     showgrid="true"
     inkscape:zoom="0.19420595"
     inkscape:cx="324.39789"
     inkscape:cy="937.14946"
     inkscape:window-width="310"
     inkscape:window-height="1030"
     inkscape:window-x="965"
     inkscape:window-y="40"
     inkscape:window-maximized="1"
     inkscape:current-layer="layer1">
    <inkscape:grid
       type="xygrid"
       id="grid669" />
  </sodipodi:namedview>
  <defs
     id="defs658">
    <radialGradient
       id="c"
       cx="120.48"
       cy="443.39001"
       r="86.18"
       gradientTransform="matrix(2.3048749,-1.0483516,0.05719202,0.12574146,-88.403088,175.4601)"
       gradientUnits="userSpaceOnUse">
      <stop
         stop-color="#fbfcfc"
         offset="0"
         id="stop18" />
      <stop
         stop-color="#fbfcfc"
         stop-opacity="0"
         offset="1"
         id="stop20" />
    </radialGradient>
    <linearGradient
       id="f"
       x1="98.549004"
       x2="207.34"
       y1="527.5"
       y2="434.25"
       gradientUnits="userSpaceOnUse">
      <stop
         stop-color="#c2c3c3"
         offset="0"
         id="stop7" />
      <stop
         stop-color="#c2c3c3"
         stop-opacity="0"
         offset="1"
         id="stop9" />
    </linearGradient>
    <linearGradient
       id="e"
       x1="-84.608002"
       x2="2.0074999"
       y1="574.71997"
       y2="476.01001"
       gradientUnits="userSpaceOnUse">
      <stop
         stop-color="#eeeded"
         offset="0"
         id="stop12" />
      <stop
         stop-color="#eeeded"
         stop-opacity="0"
         offset="1"
         id="stop14" />
    </linearGradient>
    <linearGradient
       id="d"
       x1="238.23"
       x2="234.64999"
       y1="192.72"
       y2="182"
       gradientUnits="userSpaceOnUse"
       xlink:href="#a"
       gradientTransform="matrix(1.510898,0,0,1.510898,-83.056322,-32.922949)" />
    <linearGradient
       id="a">
      <stop
         stop-color="#feffff"
         offset="0"
         id="stop2" />
      <stop
         stop-color="#feffff"
         stop-opacity="0"
         offset="1"
         id="stop4" />
    </linearGradient>
    <radialGradient
       id="b"
       cx="117.84"
       cy="595.97998"
       r="130.64999"
       gradientTransform="matrix(1.510898,0,0,1.217814,32.610471,-412.70225)"
       gradientUnits="userSpaceOnUse"
       xlink:href="#a" />
  </defs>
  <g
     inkscape:label="Layer 1"
     inkscape:groupmode="layer"
     id="layer1">
    <path
       d="M 345.97822,32.441507 303.02492,34.194754 15.501057,155.1648 32.155685,319.95843 231.14093,473.35988 495.86535,342.74729 l 8.76593,-15.7783 -7.01269,-70.12682 -75.38776,-65.7452 -76.26407,-158.659391 z"
       fill="#cdcdcd"
       fill-rule="evenodd"
       id="path26"
       style="stroke-width:1.5109" />
    <path
       d="m 224.77401,466.85183 c -23.97342,-13.9971 -45.01569,-34.02239 -67.865,-49.68285 C 138.26452,401.23052 113.48127,385.11681 95.061911,368.69938 77.737961,354.43228 47.927947,345.15959 37.942422,324.40137 27.100221,303.18232 23.241236,291.3127 23.672446,266.7863 21.594659,231.63677 15.282279,196.51142 16.340663,161.30298 c 13.113838,-9.89368 40.513215,-15.64233 56.279434,-7.98662 20.167465,-6.30074 40.191393,-18.31661 60.840833,-25.94212 47.83653,-20.80809 95.70178,-41.545153 143.56098,-62.261088 22.56676,-9.326758 44.34486,-20.726486 67.46613,-28.637547 19.68851,20.168979 48.32002,105.484845 35.99865,81.305955 C 369.78016,97.222767 364.76579,75.109264 349.8487,57.445354 329.28991,62.670043 315.69032,71.527828 295.5848,78.780747 227.58835,108.29765 159.31089,137.11803 91.794902,167.71975 c -5.398589,16.42799 15.983798,41.40465 21.314238,60.90127 12.94507,29.37035 25.59612,58.71349 39.29392,87.73935 17.11998,24.32999 20.45151,30.56244 27.55121,43.20714 16.48692,13.68482 16.48692,31.4433 54.50112,22.84326 79.40372,-38.02174 158.35721,-77.03463 237.43759,-115.68491 12.49844,-5.64169 24.73491,-22.30689 25.63239,1.71457 3.63083,16.55642 7.6888,33.01765 8.92276,50.01828 -9.06147,15.35222 -14.28191,28.27796 -34.76274,33.70813 -51.59112,24.49467 -104.16584,49.94424 -154.29289,77.34587 -28.40034,11.93791 -57.54859,30.7362 -86.95066,40.21709 -7.55781,-7.07494 0.008,0.48304 -5.67433,-2.87811 z M 94.992415,155.74286 c -8.057618,-4.92144 -11.007495,6.0856 0,1e-5 z m 26.339475,-10.65802 c -0.0692,-5.68219 -18.66865,8.53929 -2.32737,1.26819 l 2.32737,-1.26816 z m 61.29261,-27.11459 c -4.60219,-4.52316 -7.2774,5.77799 0,4e-5 z m 37.77243,-16.61986 c -4.60219,-4.523173 -7.27739,5.77797 0,2e-5 z m 91.29903,-38.559625 c 5.5796,-9.07657 -18.28942,8.498642 -1e-5,-1.1e-5 z M 180.7268,235.27486 c -12.25928,-20.96974 -18.31057,-45.65328 -29.20112,-67.73809 -9.53679,-13.63357 1.93243,-19.19595 12.67975,-23.26027 43.67402,-19.55554 87.75144,-38.28766 131.55388,-57.506283 24.03688,-9.047861 24.01271,31.763613 35.45021,45.484073 2.86949,8.6783 22.80851,39.12772 -0.23788,25.66411 -23.03212,2.31047 -42.92913,19.02523 -64.68454,27.14782 -25.83335,10.37352 -51.43399,22.27668 -75.66879,35.9926 -14.82781,28.04377 114.49432,-39.02951 152.32872,-55.15381 -6.07003,15.04552 -36.24494,18.54173 -51.42039,28.77505 -32.43142,14.8902 -65.08042,29.09839 -97.96964,42.89439 -4.22085,1.53553 -9.61022,1.20552 -12.82692,-2.29989 z m -50.71631,-19.53288 -0.98174,-1.45221 c 0,0 25.31208,-0.29799 0.98174,1.45221 z m 208.60967,-106.94437 -1.43904,-0.25303 -0.4455,-1.09796 c 0,0 20.63131,-3.28333 1.88454,1.35099 z"
       fill="#3e5c6b"
       opacity="0.28889"
       id="path28"
       style="stroke-width:1.5109" />
    <path
       d="M 346.17465,61.736311 93.733838,172.01523 156.18075,310.19591 c 0,0 38.53093,66.43267 50.48968,67.76226 11.95875,1.32959 21.25834,0 34.54517,-5.31475 13.28683,-5.31473 245.80798,-118.25193 245.80798,-118.25193 L 413.94749,191.94458 346.18523,61.735396 Z"
       fill="#f0f1f1"
       fill-rule="evenodd"
       stroke="#000000"
       id="path30"
       style="stroke-width:1.5109" />
    <path
       d="M 346.17465,61.736311 93.733838,172.01523 156.18075,310.19591 c 0,0 38.53093,66.43267 50.48968,67.76226 11.95875,1.32959 21.25834,0 34.54517,-5.31475 13.28683,-5.31473 245.80798,-118.25193 245.80798,-118.25193 L 413.94749,191.94458 346.18523,61.735396 Z"
       fill="url(#b)"
       fill-rule="evenodd"
       stroke="#000000"
       id="path32"
       style="fill:url(#b);stroke-width:1.5109" />
    <path
       d="M 346.17465,61.736311 93.733838,172.01523 156.18075,310.19591 c 0,0 38.53093,66.43267 50.48968,67.76226 11.95875,1.32959 21.25834,0 34.54517,-5.31475 13.28683,-5.31473 245.80798,-118.25193 245.80798,-118.25193 L 413.94749,191.94458 346.18523,61.735396 Z"
       fill="url(#d)"
       fill-rule="evenodd"
       stroke="#000000"
       id="path34"
       style="fill:url(#d);stroke-width:1.5109" />
    <g
       transform="matrix(1.5106409,-0.00378359,0.10515546,1.5108979,-18.265999,-555.37632)"
       id="g112">
      <path
         d="m 178.09,435.12 c -11.565,2.2482 -21.05,9.6478 -32.022,13.521 -18.733,8.9926 -38.186,16.766 -56.478,26.51 -9.076,8.1037 -5.3152,22.116 -0.125,31.344 4.1035,10.246 7.8933,24.207 20.438,26.719 10.716,0.42238 18.955,-7.692 28.688,-10.781 21.022,-10.223 43.193,-18.527 63.406,-30.094 8.5558,-9.4371 3.0418,-23.212 -1.875,-33 -3.8697,-10.099 -8.9343,-24.359 -22.031,-24.219 z"
         fill="#5e6569"
         stroke="#484a47"
         stroke-linecap="round"
         stroke-linejoin="round"
         stroke-width="1.7533"
         id="path36" />
      <path
         d="m 178.09,435.12 c -11.565,2.2482 -21.05,9.6478 -32.022,13.521 -18.733,8.9926 -38.186,16.766 -56.478,26.51 -9.076,8.1037 -5.3152,22.116 -0.125,31.344 4.1035,10.246 7.8933,24.207 20.438,26.719 10.716,0.42238 18.955,-7.692 28.688,-10.781 21.022,-10.223 43.193,-18.527 63.406,-30.094 8.5558,-9.4371 3.0418,-23.212 -1.875,-33 -3.8697,-10.099 -8.9343,-24.359 -22.031,-24.219 z"
         fill="url(#f)"
         stroke="#484a47"
         stroke-linecap="round"
         stroke-linejoin="round"
         stroke-width="1.7533"
         id="path38"
         style="fill:url(#f)" />
      <path
         transform="matrix(0.90874,-0.41735,0.38657,0.92226,0,0)"
         d="m -97.503,472.95 h 88.559 a 11.933,16.332 0 0 1 11.933,16.332 v 23.317 a 11.933,16.332 0 0 1 -11.933,16.332 h -88.559 a 11.933,16.332 0 0 1 -11.933,-16.332 v -23.317 a 11.933,16.332 0 0 1 11.933,-16.332"
         fill="#9c9c9c"
         stroke="#484a47"
         stroke-linecap="round"
         stroke-linejoin="round"
         stroke-width="1.7538"
         id="path40" />
      <path
         transform="matrix(0.90874,-0.41735,0.38657,0.92226,0,0)"
         d="m -97.503,472.95 h 88.559 a 11.933,16.332 0 0 1 11.933,16.332 v 23.317 a 11.933,16.332 0 0 1 -11.933,16.332 h -88.559 a 11.933,16.332 0 0 1 -11.933,-16.332 v -23.317 a 11.933,16.332 0 0 1 11.933,-16.332"
         fill="url(#e)"
         stroke="#484a47"
         stroke-linecap="round"
         stroke-linejoin="round"
         stroke-width="1.7538"
         id="path42"
         style="fill:url(#e)" />
      <g
         transform="matrix(0.91817,-0.40856,0.31386,0.94947,-385.98,-271.59)"
         opacity="0.7"
         id="g110">
        <g
           transform="matrix(0.11772,0,0,0.092662,219.79,820.64)"
           fill-rule="evenodd"
           stroke="#000000"
           id="g58">
          <path
             d="m 88.571,812.14 144.29,-1.263 -28.938,42.501 -88.022,-0.37795 -27.326,-40.86 z"
             stroke-width="0.94029"
             id="path44" />
          <path
             d="m 82.22,812.21 32.066,47.993 1.4286,122.86 -17.355,17.355 -15.502,-17.78 -0.63728,-170.42 z"
             id="path46" />
          <path
             d="m 237.46,812.21 -32.066,47.993 -1.4286,122.86 17.355,17.355 15.502,-17.78 0.63728,-170.42 z"
             id="path48" />
          <g
             transform="matrix(1,0,0,-1,0,2003.3)"
             id="g56">
            <path
               d="m 88.571,812.14 144.29,-1.263 -28.938,42.501 -88.022,-0.37795 -27.326,-40.86 z"
               stroke-width="0.94029"
               id="path50" />
            <path
               d="m 82.22,812.21 32.066,47.993 1.4286,122.86 -17.355,17.355 -15.502,-17.78 -0.63728,-170.42 z"
               id="path52" />
            <path
               d="m 237.46,812.21 -32.066,47.993 -1.4286,122.86 17.355,17.355 15.502,-17.78 0.63728,-170.42 z"
               id="path54" />
          </g>
        </g>
        <g
           transform="matrix(0.11772,0,0,0.092662,241.28,820.64)"
           fill-rule="evenodd"
           stroke="#000000"
           id="g74">
          <path
             d="m 88.571,812.14 144.29,-1.263 -28.938,42.501 -88.022,-0.37795 -27.326,-40.86 z"
             stroke-width="0.94029"
             id="path60" />
          <path
             d="m 82.22,812.21 32.066,47.993 1.4286,122.86 -17.355,17.355 -15.502,-17.78 -0.63728,-170.42 z"
             id="path62" />
          <path
             d="m 237.46,812.21 -32.066,47.993 -1.4286,122.86 17.355,17.355 15.502,-17.78 0.63728,-170.42 z"
             id="path64" />
          <g
             transform="matrix(1,0,0,-1,0,2003.3)"
             id="g72">
            <path
               d="m 88.571,812.14 144.29,-1.263 -28.938,42.501 -88.022,-0.37795 -27.326,-40.86 z"
               stroke-width="0.94029"
               id="path66" />
            <path
               d="m 82.22,812.21 32.066,47.993 1.4286,122.86 -17.355,17.355 -15.502,-17.78 -0.63728,-170.42 z"
               id="path68" />
            <path
               d="m 237.46,812.21 -32.066,47.993 -1.4286,122.86 17.355,17.355 15.502,-17.78 0.63728,-170.42 z"
               id="path70" />
          </g>
        </g>
        <g
           transform="matrix(0.09593,0,0,0.07123,269.24,846.45)"
           fill-rule="evenodd"
           stroke="#000000"
           id="g90">
          <path
             d="m 88.571,812.14 144.29,-1.263 -28.938,42.501 -88.022,-0.37795 -27.326,-40.86 z"
             stroke-width="0.94029"
             id="path76" />
          <path
             d="m 82.22,812.21 32.066,47.993 1.4286,122.86 -17.355,17.355 -15.502,-17.78 -0.63728,-170.42 z"
             id="path78" />
          <path
             d="m 237.46,812.21 -32.066,47.993 -1.4286,122.86 17.355,17.355 15.502,-17.78 0.63728,-170.42 z"
             id="path80" />
          <g
             transform="matrix(1,0,0,-1,0,2003.3)"
             id="g88">
            <path
               d="m 88.571,812.14 144.29,-1.263 -28.938,42.501 -88.022,-0.37795 -27.326,-40.86 z"
               stroke-width="0.94029"
               id="path82" />
            <path
               d="m 82.22,812.21 32.066,47.993 1.4286,122.86 -17.355,17.355 -15.502,-17.78 -0.63728,-170.42 z"
               id="path84" />
            <path
               d="m 237.46,812.21 -32.066,47.993 -1.4286,122.86 17.355,17.355 15.502,-17.78 0.63728,-170.42 z"
               id="path86" />
          </g>
        </g>
        <g
           transform="matrix(0.09593,0,0,0.07123,286.75,846.45)"
           fill-rule="evenodd"
           stroke="#000000"
           id="g106">
          <path
             d="m 88.571,812.14 144.29,-1.263 -28.938,42.501 -88.022,-0.37795 -27.326,-40.86 z"
             stroke-width="0.94029"
             id="path92" />
          <path
             d="m 82.22,812.21 32.066,47.993 1.4286,122.86 -17.355,17.355 -15.502,-17.78 -0.63728,-170.42 z"
             id="path94" />
          <path
             d="m 237.46,812.21 -32.066,47.993 -1.4286,122.86 17.355,17.355 15.502,-17.78 0.63728,-170.42 z"
             id="path96" />
          <g
             transform="matrix(1,0,0,-1,0,2003.3)"
             id="g104">
            <path
               d="m 88.571,812.14 144.29,-1.263 -28.938,42.501 -88.022,-0.37795 -27.326,-40.86 z"
               stroke-width="0.94029"
               id="path98" />
            <path
               d="m 82.22,812.21 32.066,47.993 1.4286,122.86 -17.355,17.355 -15.502,-17.78 -0.63728,-170.42 z"
               id="path100" />
            <path
               d="m 237.46,812.21 -32.066,47.993 -1.4286,122.86 17.355,17.355 15.502,-17.78 0.63728,-170.42 z"
               id="path102" />
          </g>
        </g>
        <path
           d="m 271.96,926.11 h 3.75 v 4.7321 h -3.75 z"
           id="path108" />
      </g>
    </g>
    <path
       d="m 79.108345,174.67441 c -5.296301,-5.10547 -12.027954,-8.36236 -18.431442,-11.84815 -5.255809,-3.39665 -11.681658,-3.44273 -17.710744,-3.2019 -4.602044,0.3534 -9.250473,0.18118 -13.825169,0.75664 -4.386741,0.58021 -6.711106,4.88277 -7.320753,8.86096 -0.61415,2.91725 -3.240121,9.56036 2.418796,7.97272 6.872319,-1.29751 13.186361,-5.3569 20.320065,-5.15821 5.606186,0.0363 9.956515,3.8543 14.024457,7.21725 3.944349,2.67126 8.323686,4.72459 12.757869,6.45032 2.782922,0.54571 7.059671,2.2804 8.841322,-0.76019 1.003946,-3.36189 -0.07373,-7.04895 -1.073856,-10.28936 z"
       fill="#fbfcfc"
       fill-rule="evenodd"
       opacity="0.42222"
       id="path114"
       style="stroke-width:1.5109" />
    <path
       d="m 88.415476,197.26234 57.133094,126.22342 41.18858,55.8035 c 0,0 11.95801,7.97196 3.98605,10.62932 -7.97195,2.65737 -54.47542,-55.8035 -57.13308,-61.11884 -2.65768,-5.31533 -49.16009,-107.62125 -51.817759,-118.25193 -2.65767,-10.63067 6.643267,-15.94451 6.643267,-13.28669 z"
       fill="#fbfcfc"
       fill-rule="evenodd"
       opacity="0.76111"
       id="path116"
       style="stroke-width:1.5109" />
    <path
       d="M 84.426706,156.07526 339.5267,43.138663 344.84143,51.110619 87.082261,166.70489 84.424893,156.07556 Z"
       fill="url(#c)"
       fill-rule="evenodd"
       id="path118"
       style="fill:url(#c);stroke-width:1.5109" />
    <path
       d="m 383.30853,233.15051 26.183,-13.27688 a 24.478279,12.724984 31.19127 0 1 30.61176,8.96373 l 9.57583,8.2502 a 24.478279,12.724984 31.19127 0 1 5.17021,21.86465 l -26.183,13.2769 a 24.478279,12.724984 31.19127 0 1 -30.61175,-8.96374 l -9.57584,-8.2502 a 24.478279,12.724984 31.19127 0 1 -5.17021,-21.86466"
       fill="#008b01"
       id="path120"
       style="stroke-width:1.45297" />
    <path
       d="m 322.6241,262.55944 26.18299,-13.27689 a 24.478302,12.725106 31.191016 0 1 30.61189,8.96367 l 9.57584,8.25021 a 24.478302,12.725106 31.191016 0 1 5.17008,21.86472 l -26.18299,13.27688 a 24.478302,12.725106 31.191016 0 1 -30.6119,-8.96368 l -9.57585,-8.2502 a 24.478302,12.725106 31.191016 0 1 -5.17006,-21.86471"
       fill="#d20301"
       id="path122"
       style="stroke-width:1.45297" />
    <path
       d="m 226.66628,321.74858 2.76759,-1.5346 a 17.941289,12.599922 20.339724 0 1 24.58203,4.54466 17.941289,12.599922 20.339724 0 1 -0.29355,18.33794 l -2.7676,1.53461 a 17.941289,12.599922 20.339724 0 1 -24.58202,-4.54466 17.941289,12.599922 20.339724 0 1 0.29355,-18.33795"
       fill="#d57401"
       id="path124"
       style="stroke-width:1.4747" />
  </g>
</svg>
